<?xml version="1.0" encoding="utf-8"?>
<svg width="117" height="47" viewBox="0 0 117 47" fill="none" stroke="none" version="1.1" xmlns:xlink="http://www.w3.org/1999/xlink" xmlns="http://www.w3.org/2000/svg">
  <defs>
    <path id="path_1" d="M117 0L117 0L117 47L0 47L0 0L117 0Z" />
    <rect id="rect_2" x="0" y="0" width="117" height="47" />
    <clipPath id="clip_path_3">
      <use xlink:href="#rect_2" />
    </clipPath>
  </defs>
  <g id="Anifyuli" opacity="1" clip-path="url(#clip_path_3)">
    <g>
      <use xlink:href="#path_1" style="mix-blend-mode:normal;" />
      <g>
        <g style="mix-blend-mode:normal;" transform="translate(0 8)">
          <path d="M10.7754 24.6L9.59766 20.352L4.63477 20.352L3.48047 24.6L0.310547 24.6L5.01562 7.84805L9.38672 7.84805L14.1094 24.6L10.7754 24.6ZM7.22461 10.9418L7.03125 10.9418L5.18555 17.7855L9.07031 17.7855L7.22461 10.9418Z" style="fill:#9D0006;" />
        </g>
        <g style="mix-blend-mode:normal;" transform="translate(15 8)">
          <path d="M1.79883 24.6L1.79883 12.2133L4.86914 12.2133L4.86914 14.3988L4.99219 14.3988Q5.40234 13.391 6.25195 12.6586Q7.10156 11.9262 8.61328 11.9262Q10.4414 11.9262 11.5781 13.1391Q12.7207 14.352 12.7207 16.6078L12.7207 24.6L9.65039 24.6L9.65039 17.0414Q9.65039 14.352 7.31836 14.352Q6.83789 14.352 6.4043 14.475Q5.97656 14.5922 5.625 14.8441Q5.2793 15.0961 5.07422 15.4594Q4.86914 15.8168 4.86914 16.3207L4.86914 24.6L1.79883 24.6ZM22.3688 10.2973Q21.2906 10.2973 20.8453 9.84023Q20.4 9.3832 20.4 8.73867L20.4 8.15859Q20.4 7.51406 20.8453 7.05703Q21.2906 6.6 22.3688 6.6Q23.4469 6.6 23.8922 7.05703Q24.3375 7.51406 24.3375 8.15859L24.3375 8.73867Q24.3375 9.3832 23.8922 9.84023Q23.4469 10.2973 22.3688 10.2973ZM16.7496 22.1742L20.8336 22.1742L20.8336 14.6391L16.7496 14.6391L16.7496 12.2133L23.9039 12.2133L23.9039 22.1742L27.6949 22.1742L27.6949 24.6L16.7496 24.6L16.7496 22.1742ZM30.5988 22.1742L34.3898 22.1742L34.3898 14.6391L30.3586 14.6391L30.3586 12.2133L34.3898 12.2133L34.3898 10.1977Q34.3898 9.45352 34.5949 8.84414Q34.8 8.23477 35.2277 7.78945Q35.6613 7.34414 36.3234 7.09219Q36.9855 6.84023 37.8703 6.84023L42.048 6.84023L42.048 9.26602L37.466 9.26602L37.466 12.2133L42.048 12.2133L42.048 14.6391L37.466 14.6391L37.466 22.1742L41.4973 22.1742L41.4973 24.6L30.5988 24.6L30.5988 22.1742Z" style="fill:#AC7A1A;" />
        </g>
        <g style="mix-blend-mode:normal;" transform="translate(59 8)">
          <path d="M10.582 12.2133L13.7051 12.2133L7.77539 26.809Q7.27148 28.0805 6.42773 28.7367Q5.58984 29.3988 4.05469 29.3988L1.79883 29.3988L1.79883 26.9789L4.75195 26.9789L5.68945 24.4828L0.697266 12.2133L3.96094 12.2133L5.85352 17.3988L7.17773 21.3363L7.3418 21.3363L8.66602 17.3988L10.582 12.2133ZM23.9273 22.4145L23.8102 22.4145Q23.4 23.4223 22.5445 24.1547Q21.6949 24.8871 20.1832 24.8871Q18.3609 24.8871 17.2184 23.6742Q16.0816 22.4613 16.0816 20.2055L16.0816 12.2133L19.152 12.2133L19.152 19.7777Q19.152 22.4613 21.4781 22.4613Q21.9352 22.4613 22.3805 22.3441Q22.8258 22.2211 23.1715 21.9691Q23.5172 21.7172 23.7223 21.3598Q23.9273 21.0023 23.9273 20.4984L23.9273 12.2133L26.9977 12.2133L26.9977 24.6L23.9273 24.6L23.9273 22.4145Z" style="fill:#076678;" />
        </g>
        <g style="mix-blend-mode:normal;" transform="translate(88 8)">
          <path d="M1.72852 22.1742L5.66602 22.1742L5.66602 9.26602L1.72852 9.26602L1.72852 6.84023L8.73633 6.84023L8.73633 22.1742L12.6973 22.1742L12.6973 24.6L1.72852 24.6L1.72852 22.1742ZM22.3688 10.2973Q21.2906 10.2973 20.8453 9.84023Q20.4 9.3832 20.4 8.73867L20.4 8.15859Q20.4 7.51406 20.8453 7.05703Q21.2906 6.6 22.3688 6.6Q23.4469 6.6 23.8922 7.05703Q24.3375 7.51406 24.3375 8.15859L24.3375 8.73867Q24.3375 9.3832 23.8922 9.84023Q23.4469 10.2973 22.3688 10.2973ZM16.7496 22.1742L20.8336 22.1742L20.8336 14.6391L16.7496 14.6391L16.7496 12.2133L23.9039 12.2133L23.9039 22.1742L27.6949 22.1742L27.6949 24.6L16.7496 24.6L16.7496 22.1742Z" style="fill:#427B58;" />
        </g>
      </g>
    </g>
  </g>
</svg>