<?xml version="1.0" encoding="utf-8"?>
<svg width="184" height="47" viewBox="0 0 184 47" fill="none" xmlns="http://www.w3.org/2000/svg">
  <g>
    <path d="M15.6621 36.9L14.0801 30.8531L7.19824 30.8531L5.65137 36.9L0.175781 36.9L6.9873 11.7721L14.6162 11.7721L21.4189 36.9L15.6621 36.9ZM10.8018 16.9928L10.5117 16.9928L8.06836 26.4937L13.2451 26.4937L10.8018 16.9928ZM0 38.7L21.6 38.7L21.6 42.3L0 42.3L0 38.7Z" fill="#CC241D" />
    <path d="M2.33789 36.9L2.33789 18.3199L7.66406 18.3199L7.66406 21.7037L7.88379 21.7037Q8.20898 20.9127 8.6748 20.2359Q9.14062 19.5504 9.80859 19.0318Q10.4766 18.5045 11.3555 18.1969Q12.2432 17.8893 13.3594 17.8893Q14.6865 17.8893 15.8027 18.3463Q16.9189 18.7945 17.71 19.6998Q18.501 20.5963 18.9492 21.8883Q19.4062 23.1803 19.4062 24.8766L19.4062 36.9L14.0801 36.9L14.0801 25.5973Q14.0801 21.9937 10.9424 21.9937Q10.3359 21.9937 9.73828 22.1607Q9.14062 22.3189 8.6748 22.6617Q8.20898 23.0045 7.93652 23.5143Q7.66406 24.0152 7.66406 24.692L7.66406 36.9L2.33789 36.9ZM33.5531 15.9469Q31.7514 15.9469 31.0482 15.2086Q30.3451 14.4703 30.3451 13.4244L30.3451 12.3873Q30.3451 11.3062 31.0482 10.5855Q31.7514 9.86484 33.5531 9.86484Q35.3549 9.86484 36.0492 10.5855Q36.7523 11.3062 36.7523 12.3873L36.7523 13.4244Q36.7523 14.4703 36.0492 15.2086Q35.3549 15.9469 33.5531 15.9469ZM24.9838 32.7603L30.89 32.7603L30.89 22.4684L24.9838 22.4684L24.9838 18.3199L36.2162 18.3199L36.2162 32.7603L41.6918 32.7603L41.6918 36.9L24.9838 36.9L24.9838 32.7603ZM0 38.7L43.2 38.7L43.2 42.3L0 42.3L0 38.7Z" fill="#D65D0E" transform="translate(24 0)" />
    <path d="M2.55762 32.7603L8.02441 32.7603L8.02441 22.4684L2.19727 22.4684L2.19727 18.3199L8.02441 18.3199L8.02441 15.6217Q8.02441 13.2486 9.41309 11.7545Q10.8018 10.2603 13.7197 10.2603L20.0127 10.2603L20.0127 14.4L13.3594 14.4L13.3594 18.3199L20.0127 18.3199L20.0127 22.4684L13.3594 22.4684L13.3594 32.7603L19.1865 32.7603L19.1865 36.9L2.55762 36.9L2.55762 32.7603ZM0 38.7L21.6 38.7L21.6 42.3L0 42.3L0 38.7Z" fill="#D79921" transform="translate(70 0)" />
    <path d="M15.4775 18.3199L20.918 18.3199L12.1641 39.8883Q11.3379 41.9361 9.9668 43.0172Q8.60449 44.0982 6.23145 44.0982L2.55762 44.0982L2.55762 39.9586L7.02246 39.9586L8.17383 36.7945L0.685547 18.3199L6.40723 18.3199L9.10547 26.1334L10.8018 31.5387L11.0918 31.5387L12.709 26.1334L15.4775 18.3199ZM35.5307 33.5162L35.3197 33.5162Q34.7045 35.0982 33.3861 36.2145Q32.0766 37.3307 29.8441 37.3307Q28.5082 37.3307 27.392 36.8824Q26.2758 36.4342 25.4848 35.5377Q24.6937 34.6324 24.2455 33.3404Q23.7973 32.0396 23.7973 30.3521L23.7973 18.3199L29.1234 18.3199L29.1234 29.6314Q29.1234 33.2262 32.2523 33.2262Q32.8676 33.2262 33.4564 33.068Q34.0541 32.901 34.5023 32.567Q34.9594 32.2242 35.2406 31.7232Q35.5307 31.2135 35.5307 30.5279L35.5307 18.3199L40.8568 18.3199L40.8568 36.9L35.5307 36.9L35.5307 33.5162ZM16.2463 38.7L43.2 38.7L43.2 42.3L16.2463 42.3L16.2463 38.7Z" fill="#458588" transform="translate(94 0)" />
    <path d="M2.45215 32.7603L8.13867 32.7603L8.13867 14.4L2.45215 14.4L2.45215 10.2603L13.4648 10.2603L13.4648 32.7603L19.1514 32.7603L19.1514 36.9L2.45215 36.9L2.45215 32.7603ZM33.5531 15.9469Q31.7514 15.9469 31.0482 15.2086Q30.3451 14.4703 30.3451 13.4244L30.3451 12.3873Q30.3451 11.3062 31.0482 10.5855Q31.7514 9.86484 33.5531 9.86484Q35.3549 9.86484 36.0492 10.5855Q36.7523 11.3062 36.7523 12.3873L36.7523 13.4244Q36.7523 14.4703 36.0492 15.2086Q35.3549 15.9469 33.5531 15.9469ZM24.9838 32.7603L30.89 32.7603L30.89 22.4684L24.9838 22.4684L24.9838 18.3199L36.2162 18.3199L36.2162 32.7603L41.6918 32.7603L41.6918 36.9L24.9838 36.9L24.9838 32.7603ZM0 38.7L43.2 38.7L43.2 42.3L0 42.3L0 38.7Z" fill="#689D6A" transform="translate(140 0)" />
  </g>
</svg>