<?xml version="1.0" encoding="utf-8"?>
<svg width="60" height="60" viewBox="0 0 60 60" fill="none" stroke="none" version="1.1" xmlns:xlink="http://www.w3.org/1999/xlink" xmlns="http://www.w3.org/2000/svg">
  <defs>
    <path id="path_1" d="M60 0L60 0L60 60L0 60L0 0L60 0Z" />
    <rect id="rect_2" x="0" y="0" width="60" height="60" />
    <clipPath id="clip_path_3">
      <use xlink:href="#rect_2" />
    </clipPath>
  </defs>
  <g id="linux-deploy-svgrepo-com" opacity="1" clip-path="url(#clip_path_3)">
    <g>
      <use xlink:href="#path_1" style="mix-blend-mode:normal;" />
      <g>
        <path id="Path" d="M9.12862 0C5.20762 0 0.505873 1.87 0.00512314 7.09576C-0.0252151 7.41553 0.0801678 7.73336 0.295558 7.97166C0.510949 8.20996 0.816535 8.34684 1.13775 8.34887C1.13775 8.34887 16.1003 8.34887 16.1003 8.34887C16.4076 8.35065 16.7023 8.22663 16.9158 8.00561C17.1294 7.7846 17.2432 7.48584 17.2309 7.17875C17.1278 4.881 16.089 0 9.12862 0C9.12862 0 9.12862 0 9.12862 0Z" style="fill:none;stroke-width:2;stroke:#AC7A1A;stroke-linecap:round;stroke-linejoin:round;mix-blend-mode:normal;" transform="translate(11.144 44.875)" />
        <path id="Path" d="M6.48949 0C4.80199 1.296 -2.72138 9.3875 1.04012 19.5834" style="fill:none;stroke-width:2;stroke:#AC7A1A;stroke-linecap:round;stroke-linejoin:round;mix-blend-mode:normal;" transform="translate(16.074 25.705)" />
        <path id="Path" d="M8.10316 0C12.0242 0 16.7259 1.87 17.2267 7.09576C17.257 7.41553 17.1516 7.73336 16.9362 7.97166C16.7208 8.20997 16.4153 8.34684 16.094 8.34887C16.094 8.34887 1.13153 8.34887 1.13153 8.34887C0.8242 8.35065 0.529522 8.22663 0.315969 8.00561C0.102415 7.7846 -0.0114231 7.48584 0.000907898 7.17875C0.104034 4.881 1.14278 0 8.10316 0C8.10316 0 8.10316 0 8.10316 0Z" style="fill:none;stroke-width:2;stroke:#AC7A1A;stroke-linecap:round;stroke-linejoin:round;mix-blend-mode:normal;" transform="translate(31.624 44.875)" />
        <path id="Path" d="M38.1435 38.7927C42.1245 35.238 41.577 29.387 41.577 27.8196C45.1938 28.8446 47.8652 31.5332 48.5696 30.5321C50.2876 28.0907 39.1705 21.0995 38.9548 16.9085C38.7438 12.8097 38.3382 0 24.375 0C10.4117 0 10.0061 12.8097 9.79509 16.9087C9.57946 21.0998 -1.53766 28.091 0.180339 30.5324C0.884714 31.5332 3.55609 28.8449 7.17296 27.8199C7.17296 29.3872 6.62546 35.2382 10.6065 38.793" style="fill:none;stroke-width:2;stroke:#AC7A1A;stroke-linecap:round;stroke-linejoin:round;mix-blend-mode:normal;" transform="translate(5.625 6.777)" />
        <path id="Path" d="M0 0C2.41475 1.879 10.052 10.3025 6.29049 20.4979" style="fill:none;stroke-width:2;stroke:#AC7A1A;stroke-linecap:round;stroke-linejoin:round;mix-blend-mode:normal;" transform="translate(36.595 24.791)" />
        <path id="Path" d="M4.93488 7.76012C4.93488 7.76012 9.86975 2.41125 9.86975 2.41125C9.3875 1.14538 7.72976 0 4.93488 0C2.14 0 0.482252 1.14537 0 2.41125C0 2.41125 4.93488 7.76012 4.93488 7.76012Z" style="fill:none;stroke-width:2;stroke:#AC7A1A;stroke-linecap:round;stroke-linejoin:round;mix-blend-mode:normal;" transform="translate(25.065 23.294)" />
        <path id="Path" d="M4.88275 11.4232C0.602751 12.0561 0 8.01737 0 5.54587C0 2.17013 1.80837 0 4.88275 0C7.95712 0 9.55512 4.15938 9.55512 6.14863C9.62103 7.17828 9.35415 8.20185 8.79387 9.06825" style="fill:none;stroke-width:2;stroke:#AC7A1A;stroke-linecap:round;stroke-linejoin:round;mix-blend-mode:normal;" transform="translate(20.182 14.282)" />
        <path id="Path" d="M4.98225 8.87212C5.82613 8.93237 9.9245 8.38562 9.9245 4.70838C9.9245 1.03113 7.7245 0.00650215 4.7705 0.00650215C2.60382 -0.106682 0.637665 1.26793 0 3.34175" style="fill:none;stroke-width:2;stroke:#AC7A1A;stroke-linecap:round;stroke-linejoin:round;mix-blend-mode:normal;" transform="translate(29.668 16.295)" />
        <path id="Path" d="M0 0C1.07644 0.209099 2.18306 0.209099 3.2595 0" style="fill:none;stroke-width:2;stroke:#AC7A1A;stroke-linecap:round;stroke-linejoin:round;mix-blend-mode:normal;" transform="translate(28.376 51.852)" />
        <g style="mix-blend-mode:normal;" transform="translate(26.76 19.799)">
          <path id="Circle" d="M0 0.9375C0 0.419733 0.419733 0 0.9375 0C1.45527 0 1.875 0.419733 1.875 0.9375C1.875 1.45527 1.45527 1.875 0.9375 1.875C0.419733 1.875 0 1.45527 0 0.9375Z" />
          <path d="M0.9375 -2Q-2 -2 -2 0.9375Q-2 2.15425 -1.13963 3.01463Q-0.279251 3.875 0.9375 3.875Q2.15425 3.875 3.01463 3.01463Q3.875 2.15425 3.875 0.9375Q3.875 -2 0.9375 -2ZM1.6888 0.186199Q2 0.497396 2 0.9375Q2 1.3776 1.6888 1.6888Q1.3776 2 0.9375 2Q0.4974 2 0.186199 1.6888Q-0.125 1.3776 -0.125 0.9375Q-0.125002 0.497398 0.186199 0.186199Q0.497398 -0.125002 0.9375 -0.125Q1.3776 -0.125002 1.6888 0.186199Z" fill-rule="evenodd" style="fill:#AC7A1A;fill-rule:evenodd;" />
        </g>
        <g style="mix-blend-mode:normal;" transform="translate(31 19.799)">
          <path id="Circle" d="M0 0.9375C0 0.419733 0.419733 0 0.9375 0C1.45527 0 1.875 0.419733 1.875 0.9375C1.875 1.45527 1.45527 1.875 0.9375 1.875C0.419733 1.875 0 1.45527 0 0.9375Z" />
          <path d="M0.9375 -2Q-2 -2 -2 0.9375Q-2 2.15425 -1.13963 3.01463Q-0.279255 3.875 0.9375 3.875Q2.15426 3.875 3.01463 3.01463Q3.875 2.15425 3.875 0.9375Q3.875 -2 0.9375 -2ZM1.6888 0.186199Q2 0.497398 2 0.937508Q2 2 0.9375 2Q0.4974 2 0.186199 1.6888Q-0.125 1.3776 -0.125 0.9375Q-0.125002 0.497396 0.186199 0.186199Q0.497398 -0.125 0.9375 -0.125Q1.37761 -0.124998 1.6888 0.186199Z" fill-rule="evenodd" style="fill:#AC7A1A;fill-rule:evenodd;" />
        </g>
      </g>
    </g>
  </g>
</svg>