<?xml version="1.0" encoding="utf-8"?>
<svg width="55.669" height="53.815" viewBox="0 0 55.669 53.815" fill="none" stroke="none" version="1.1" xmlns:xlink="http://www.w3.org/1999/xlink" xmlns="http://www.w3.org/2000/svg">
  <path id="Shape" d="M0 28.1237C0.264433 12.8753 10.9374 2.01965 24.0025 0.262565C39.5883 -1.82332 52.6986 8.77834 55.2177 22.842C57.6098 36.1802 50.2787 48.6659 38.1914 53.6136C37.1493 54.038 36.5787 53.8032 36.1803 52.7437C36.1803 52.7437 30.1731 37.1405 30.1731 37.1405C29.8304 36.2236 30.0635 35.653 30.9612 35.2477C33.6804 34.0142 35.3731 31.9492 35.8271 28.9848C36.5421 24.392 33.2176 20.1524 28.5883 19.7523C24.373 19.3435 20.5701 22.2801 19.8899 26.4553C19.3001 30.1626 21.1302 33.6141 24.5818 35.1816C25.6604 35.6704 25.8779 36.1506 25.4603 37.2483C25.4603 37.2483 19.4254 52.9594 19.4254 52.9594C19.1348 53.7301 18.5016 54.0033 17.6857 53.6849C11.3167 51.1937 6.08717 46.4356 3.00792 40.3293C0.208765 34.8023 0.18267 30.4809 2.44379e-06 28.115C2.44379e-06 28.115 0 28.1237 0 28.1237ZM2.34683 27.9079C2.3938 28.6508 2.41816 29.5102 2.49296 30.3905C3.19754 38.4626 8.05475 46.5 17.1968 50.9483C17.5604 51.1101 17.6961 51.0388 17.8318 50.6961C19.5002 46.2999 21.1842 41.9072 22.8786 37.511C23.023 37.1492 22.95 36.9769 22.6142 36.7682C19.0635 34.5292 17.296 31.3212 17.4943 27.1094C17.6039 24.6895 18.5381 22.5601 20.1682 20.7839C23.5293 17.1149 28.811 16.3164 33.1341 18.8094C36.7039 20.8744 38.6959 24.8704 38.207 28.9674C37.7982 32.3911 36.0428 35.0198 33.0697 36.796C32.7705 36.9769 32.68 37.1213 32.8175 37.4727C34.5206 41.8776 36.2151 46.2808 37.8904 50.6857C38.0278 51.0388 38.1635 51.1101 38.5167 50.9379C42.5127 49.0799 45.8373 46.4165 48.412 42.8658C52.3159 37.4466 53.9286 31.4204 53.1579 24.7887C51.627 11.5949 39.7571 0.667905 24.4722 2.55373C12.5658 4.01332 2.54516 14.0618 2.34509 27.9062C2.34509 27.9062 2.34683 27.9079 2.34683 27.9079Z" style="fill:#98971A;mix-blend-mode:normal;" transform="translate(-0.237 0.943)" />
</svg>