<?xml version="1.0" encoding="utf-8"?>
<svg width="55.667" height="55.667" viewBox="0 0 55.667 55.667" fill="none" stroke="none" version="1.1" xmlns:xlink="http://www.w3.org/1999/xlink" xmlns="http://www.w3.org/2000/svg">
  <defs>
    <path id="path_1" d="M55.6667 0L55.6667 0L55.6667 55.6667L0 55.6667L0 0L55.6667 0Z" />
    <rect id="rect_2" x="0" y="0" width="55.667" height="55.667" />
    <clipPath id="clip_path_3">
      <use xlink:href="#rect_2" />
    </clipPath>
  </defs>
  <g id="tools-and-utensils-user-svgrepo-com" opacity="1" clip-path="url(#clip_path_3)">
    <g>
      <use xlink:href="#path_1" style="mix-blend-mode:normal;" />
      <g>
        <g id="Group" transform="translate(3.527 0)">
          <g id="Group">
            <g id="Group">
              <path id="Path" d="M1.28685 0C1.28685 0 1.18748 0 1.18748 0C0.531659 0 0 0.531662 0 1.18748C0 1.8433 0.531659 2.37496 1.18748 2.37496C1.18748 2.37496 1.28675 2.37496 1.28675 2.37496C1.94257 2.37496 2.47423 1.8433 2.47423 1.18748C2.47423 0.531658 1.94268 0 1.28685 0C1.28685 0 1.28685 0 1.28685 0Z" style="fill:#458588;mix-blend-mode:normal;" transform="translate(5.67 48.542)" />
              <path id="Path" d="M0 1.18748C0 1.8433 0.531659 2.37496 1.18748 2.37496C1.18748 2.37496 29.632 2.37496 29.632 2.37496C30.2878 2.37496 30.8195 1.8433 30.8195 1.18748C30.8195 0.531658 30.2878 0 29.632 0C29.632 0 1.18748 0 1.18748 0C0.531659 0 0 0.531769 0 1.18748C0 1.18748 0 1.18748 0 1.18748Z" style="fill:#458588;mix-blend-mode:normal;" transform="translate(12.123 48.542)" />
              <path id="Shape" d="M34.9727 36.5123C38.423 33.5208 40.6088 29.1075 40.6088 24.1932C40.6088 24.1932 40.6088 16.3024 40.6088 16.3024C40.6088 7.31319 33.2955 0 24.3063 0C15.3171 0 8.00381 7.31319 8.00381 16.3025C8.00381 16.3025 8.00381 24.1933 8.00381 24.1933C8.00381 29.1075 10.1895 33.5209 13.6398 36.5124C5.78171 38.7079 0 45.9301 0 54.4792C0 55.135 0.531659 55.6667 1.18748 55.6667C1.18748 55.6667 47.425 55.6667 47.425 55.6667C48.0808 55.6667 48.6125 55.135 48.6125 54.4792C48.6125 45.93 42.8307 38.7078 34.9727 36.5123C34.9727 36.5123 34.9727 36.5123 34.9727 36.5123ZM10.3788 24.1932C10.3788 24.1932 10.3788 16.3024 10.3788 16.3024C10.3788 8.62277 16.6266 2.37496 24.3063 2.37496C31.986 2.37496 38.2338 8.62277 38.2338 16.3025C38.2338 16.3025 38.2338 24.1933 38.2338 24.1933C38.2338 31.873 31.986 38.1208 24.3063 38.1208C16.6266 38.1207 10.3788 31.8729 10.3788 24.1932C10.3788 24.1932 10.3788 24.1932 10.3788 24.1932ZM2.4178 53.2916C2.97055 45.662 8.8051 39.4737 16.2728 38.3746C18.6453 39.7239 21.3873 40.4957 24.3063 40.4957C27.2253 40.4957 29.9671 39.7239 32.3397 38.3746C39.8074 39.4737 45.6419 45.662 46.1947 53.2916C46.1947 53.2916 2.4178 53.2916 2.4178 53.2916C2.4178 53.2916 2.4178 53.2916 2.4178 53.2916Z" style="fill:#458588;mix-blend-mode:normal;" />
              <path id="Path" d="M0.284979 11.9285C0.519823 12.2031 0.852953 12.3443 1.18804 12.3442C1.46094 12.3442 1.73535 12.2505 1.95922 12.0594C1.95922 12.0594 7.78952 7.07471 7.78952 7.07471C8.0534 6.8491 8.20528 6.51934 8.20528 6.17208C8.20528 5.82482 8.0534 5.49506 7.78952 5.26946C7.78952 5.26946 1.95922 0.284907 1.95922 0.284907C1.46061 -0.14129 0.711065 -0.0825787 0.284979 0.415811C-0.141218 0.914309 -0.0827217 1.66385 0.415884 2.09005C0.415884 2.09005 5.19049 6.17208 5.19049 6.17208C5.19049 6.17208 0.415884 10.2541 0.415884 10.2541C-0.0826168 10.6803 -0.141218 11.4301 0.284979 11.9285C0.284979 11.9285 0.284979 11.9285 0.284979 11.9285Z" style="fill:#458588;mix-blend-mode:normal;" transform="translate(28.748 12.968)" />
              <path id="Path" d="M7.01725 12.3442C7.35233 12.3442 7.68557 12.2031 7.92031 11.9285C8.3465 11.43 8.2879 10.6804 7.7894 10.2542C7.7894 10.2542 3.0148 6.17221 3.0148 6.17221C3.0148 6.17221 7.7894 2.09017 7.7894 2.09017C8.2879 1.66398 8.3465 0.914435 7.92031 0.415937C7.49411 -0.0825615 6.74457 -0.141381 6.24607 0.285033C6.24607 0.285033 0.41576 5.26958 0.41576 5.26958C0.151887 5.49518 0 5.82494 0 6.17221C0 6.51947 0.151887 6.84923 0.41576 7.07483C0.41576 7.07483 6.24607 12.0595 6.24607 12.0595C6.46993 12.2506 6.74424 12.3442 7.01725 12.3442C7.01725 12.3442 7.01725 12.3442 7.01725 12.3442Z" style="fill:#458588;mix-blend-mode:normal;" transform="translate(11.659 12.968)" />
              <path id="Path" d="M0.820177 15.7817C0.942274 15.8215 1.06611 15.8404 1.18799 15.8404C1.68834 15.8404 2.15367 15.5217 2.31698 15.0201C2.31698 15.0201 6.69996 1.55545 6.69996 1.55545C6.90294 0.93192 6.56199 0.261639 5.93835 0.0587597C5.31471 -0.144554 4.64454 0.19673 4.44166 0.82037C4.44166 0.82037 0.0586777 14.285 0.0586777 14.285C-0.144419 14.9087 0.196648 15.5789 0.820177 15.7817C0.820177 15.7817 0.820177 15.7817 0.820177 15.7817Z" style="fill:#458588;mix-blend-mode:normal;" transform="translate(20.927 11.219)" />
            </g>
          </g>
        </g>
      </g>
    </g>
  </g>
</svg>